<?xml version="1.0" standalone="no"?>
<!DOCTYPE svg PUBLIC "-//W3C//DTD SVG 20010904//EN"
 "http://www.w3.org/TR/2001/REC-SVG-20010904/DTD/svg10.dtd">
<svg version="1.0" xmlns="http://www.w3.org/2000/svg"
 width="1850.000000pt" height="1850.000000pt" viewBox="0 0 1850.000000 1850.000000"
 preserveAspectRatio="xMidYMid meet">
<metadata>
Created by potrace 1.14, written by Peter Selinger 2001-2017
</metadata>
<g transform="translate(0.000000,1850.000000) scale(0.100000,-0.100000)"
fill="#000000" stroke="none">
<path d="M7702 14208 c-184 -92 -203 -104 -198 -123 3 -12 8 -40 11 -61 4 -21
8 -47 11 -57 3 -10 -1 -20 -10 -23 -17 -6 -17 -6 5 -129 13 -70 15 -81 24
-156 7 -53 6 -58 -16 -69 -13 -7 -25 -14 -27 -15 -1 -1 4 -37 12 -81 8 -43 24
-138 36 -211 11 -72 22 -140 24 -150 2 -10 7 -38 11 -63 3 -25 9 -58 11 -75 3
-16 7 -46 10 -65 2 -19 9 -57 14 -85 5 -27 19 -111 31 -185 12 -74 23 -142 24
-152 2 -9 7 -38 11 -65 5 -26 9 -50 9 -53 1 -3 5 -30 9 -60 5 -30 10 -64 12
-75 2 -11 6 -38 9 -60 3 -22 7 -51 10 -65 3 -14 8 -41 11 -60 3 -19 18 -114
34 -210 16 -96 31 -193 34 -215 4 -22 11 -69 17 -105 6 -36 13 -78 16 -95 2
-16 22 -138 44 -270 22 -132 42 -251 44 -265 9 -59 18 -116 20 -131 2 -9 6
-34 9 -55 6 -42 19 -114 22 -126 1 -5 2 -15 3 -23 1 -13 36 -15 254 -15 l254
0 46 99 c26 54 91 190 145 302 55 112 125 258 157 324 93 193 199 414 279 578
178 368 322 667 401 832 29 61 90 187 135 280 45 94 111 229 145 300 34 72 81
167 103 212 29 59 37 85 29 91 -7 5 -38 23 -69 41 l-57 32 65 130 c35 71 64
136 64 145 0 8 -11 20 -25 26 -14 6 -25 15 -25 19 0 5 13 36 29 68 21 44 26
63 17 69 -6 5 -89 53 -183 106 -148 84 -177 97 -203 91 -34 -7 -19 20 -197
-365 -52 -113 -110 -236 -128 -275 -18 -38 -67 -144 -110 -235 -96 -205 -117
-251 -195 -420 -76 -165 -106 -230 -158 -340 -76 -163 -110 -237 -241 -520
-140 -302 -164 -351 -168 -347 -3 4 -14 67 -18 107 -2 19 -9 63 -15 98 -17
107 -30 185 -35 232 -3 25 -10 70 -15 100 -5 30 -12 78 -16 105 -3 28 -8 59
-10 70 -2 10 -6 37 -9 60 -3 22 -12 81 -20 130 -8 50 -17 110 -20 135 -3 25
-8 56 -10 70 -5 31 -24 162 -31 210 -2 19 -6 42 -9 50 -2 8 -7 42 -10 75 -4
33 -8 67 -10 75 -5 18 -10 48 -25 155 -6 44 -13 91 -16 105 -2 14 -7 45 -9 70
-3 25 -10 68 -15 95 -5 28 -11 71 -15 96 -3 25 -8 57 -10 70 -3 13 -7 40 -9
59 -3 19 -9 64 -15 100 -6 36 -13 83 -15 105 -13 103 -18 116 -43 126 -13 5
-30 9 -36 8 -7 0 -103 -46 -215 -101z"/>
<path d="M1854 14232 c-53 -49 -186 -167 -215 -193 -13 -11 -58 -51 -99 -88
-41 -38 -89 -81 -107 -97 -31 -28 -35 -40 -48 -139 -2 -11 -10 -65 -19 -120
-22 -131 -24 -143 -31 -190 -4 -22 -8 -47 -10 -55 -2 -8 -7 -33 -10 -55 -3
-23 -7 -50 -9 -60 -4 -19 -13 -77 -22 -140 -3 -16 -9 -55 -14 -85 -5 -30 -12
-73 -15 -95 -3 -22 -14 -89 -25 -150 -10 -60 -21 -128 -25 -150 -3 -22 -8 -51
-10 -65 -24 -142 -68 -412 -71 -440 -2 -19 -6 -44 -9 -56 -2 -12 -7 -39 -10
-60 -4 -21 -17 -106 -31 -189 -37 -220 -38 -228 -35 -255 6 -47 5 -105 -1
-140 -6 -28 -2 -42 17 -70 l24 -35 -24 -148 -24 -148 158 -197 c86 -108 166
-209 176 -224 l20 -27 740 0 740 0 75 72 c135 129 352 331 367 342 13 10 14
17 4 48 -7 21 -18 37 -24 38 -7 0 -70 1 -141 1 l-130 1 85 80 c46 44 114 109
152 145 37 35 67 65 67 67 0 1 -5 16 -11 34 -11 31 -23 36 -74 32 -15 -2 -7
11 33 50 l54 52 -14 35 -13 34 -837 0 c-461 0 -838 2 -838 5 0 4 37 238 55
348 4 22 9 54 11 70 3 17 9 55 14 85 5 30 12 69 14 85 3 17 12 71 20 120 8 50
17 104 20 120 2 17 11 73 20 125 9 52 18 112 22 134 3 21 7 48 10 59 2 12 6
37 9 57 3 19 20 125 38 235 l32 200 870 2 c479 1 873 2 877 2 4 1 15 15 23 31
16 30 16 31 -47 116 -35 47 -82 110 -105 141 -24 30 -41 59 -38 63 3 5 43 7
89 7 l85 -2 15 33 c16 32 16 33 -24 87 -39 53 -40 55 -17 55 15 0 29 10 40 30
l18 29 -162 221 -161 220 -727 0 -726 -1 -41 -37z"/>
<path d="M4915 14244 c-16 -14 -77 -69 -135 -123 -58 -53 -136 -126 -175 -162
-160 -147 -143 -117 -170 -304 -4 -22 -13 -80 -21 -130 -8 -49 -17 -101 -19
-115 -2 -14 -20 -124 -40 -245 -45 -275 -44 -269 -50 -302 -2 -16 -14 -86 -25
-158 -11 -71 -23 -142 -25 -157 -5 -28 -9 -54 -19 -113 -3 -16 -14 -84 -25
-150 -11 -66 -23 -140 -26 -165 -3 -25 -8 -52 -10 -60 -2 -8 -7 -35 -10 -60
-5 -41 -13 -86 -30 -190 -37 -215 -43 -265 -34 -282 7 -13 7 -41 0 -86 -10
-62 -9 -69 10 -95 25 -35 28 -49 18 -101 -4 -23 -10 -59 -13 -81 -4 -22 -10
-65 -15 -95 -5 -30 -6 -60 -2 -66 3 -6 80 -109 170 -228 l164 -216 740 0 740
0 66 63 c71 67 261 243 353 326 57 53 57 52 74 156 1 11 10 65 19 120 9 55 18
114 21 130 2 17 7 41 9 55 3 14 7 39 10 55 5 44 14 93 40 250 13 77 26 158 30
180 3 22 19 123 36 225 16 102 32 196 34 210 15 92 37 229 41 250 2 14 9 54
14 90 6 36 13 76 15 89 2 13 7 45 11 70 4 25 8 55 10 66 2 11 18 103 34 204
l30 184 -23 36 c-13 20 -23 43 -22 51 2 8 6 33 9 55 4 23 8 52 11 65 5 28 15
91 21 134 2 16 -1 35 -7 43 -8 9 -8 31 0 79 14 79 33 45 -174 318 l-156 206
-737 0 -737 0 -30 -26z m1251 -1048 c-3 -23 -10 -66 -15 -96 -6 -30 -13 -71
-15 -90 -4 -29 -19 -126 -72 -445 -2 -16 -9 -55 -14 -85 -5 -30 -12 -71 -15
-90 -3 -19 -7 -46 -10 -60 -3 -14 -7 -38 -9 -55 -7 -44 -18 -118 -21 -135 -2
-8 -15 -89 -29 -180 -15 -91 -29 -176 -32 -190 -2 -14 -6 -43 -9 -65 -3 -22
-9 -56 -13 -75 l-8 -35 -613 -2 -613 -1 6 36 c3 20 8 46 10 57 2 11 7 42 10
68 4 27 9 58 12 70 2 12 6 39 9 62 3 22 10 63 15 90 5 28 12 68 15 90 3 22 12
81 21 130 15 91 19 116 28 170 4 27 30 181 40 245 3 14 7 41 10 60 3 19 15 94
26 165 12 72 24 144 26 160 17 104 36 212 40 226 4 15 60 16 615 16 l611 0 -6
-41z"/>
<path d="M10726 14153 c-10 -65 -25 -156 -33 -203 -8 -47 -17 -101 -19 -120
-2 -19 -9 -60 -14 -90 -11 -65 -14 -83 -50 -305 -25 -155 -29 -174 -34 -200
-2 -11 -7 -40 -10 -65 -3 -25 -8 -56 -10 -70 -7 -39 -37 -222 -42 -255 -2 -16
-6 -41 -9 -55 -3 -14 -7 -38 -9 -55 -10 -62 -67 -413 -81 -495 -8 -47 -17
-105 -20 -130 -3 -25 -8 -52 -10 -60 -2 -8 -6 -33 -10 -55 -3 -22 -8 -51 -10
-65 -25 -151 -35 -210 -39 -240 -3 -19 -7 -44 -10 -55 -2 -11 -7 -40 -10 -65
-3 -25 -8 -56 -11 -70 -3 -14 -8 -41 -10 -60 -3 -19 -8 -51 -11 -70 -4 -19 -8
-44 -9 -55 -2 -11 -8 -54 -15 -96 -9 -56 -9 -82 -1 -97 8 -15 7 -38 -2 -90
-13 -69 -13 -69 12 -93 l26 -24 -24 -152 c-22 -144 -23 -154 -7 -178 l17 -25
226 2 226 3 3 25 c4 28 34 215 40 245 2 10 6 37 9 60 6 38 21 127 29 170 2 11
9 56 16 100 7 44 14 89 16 100 2 11 6 34 8 50 9 63 17 111 21 130 2 11 15 92
29 180 15 88 28 171 30 185 3 14 7 43 11 64 3 21 8 48 10 60 3 12 7 37 10 56
3 28 61 385 80 503 6 34 8 46 40 242 14 88 28 171 30 185 11 72 35 218 39 240
6 31 35 213 42 260 3 19 9 58 14 85 9 49 14 82 25 155 5 28 1 40 -19 62 l-25
26 25 148 c19 114 23 153 14 169 -8 15 -8 39 0 88 9 57 8 71 -6 92 l-16 25
-227 0 -226 0 -19 -117z"/>
<path d="M12336 14243 c-3 -16 -17 -100 -31 -188 -33 -203 -30 -188 -54 -335
-12 -69 -23 -143 -27 -165 -7 -48 -50 -309 -79 -485 -2 -14 -11 -68 -20 -120
-8 -52 -17 -106 -19 -120 -3 -14 -9 -56 -15 -95 -6 -38 -13 -83 -16 -100 -6
-36 -16 -93 -21 -120 -2 -11 -19 -119 -38 -240 -20 -121 -38 -231 -40 -244 -3
-12 -8 -42 -10 -65 -3 -22 -7 -50 -9 -61 -11 -53 -44 -252 -83 -500 -3 -16 -7
-41 -9 -55 -30 -180 -34 -214 -24 -226 10 -12 7 -63 -7 -139 -2 -11 7 -31 22
-46 l25 -26 -25 -152 c-24 -146 -25 -154 -8 -177 l17 -23 904 -1 904 0 66 58
c36 31 73 64 81 72 17 16 67 61 195 175 170 152 157 134 171 241 2 23 7 53 9
65 6 29 35 202 41 244 2 17 6 41 9 55 3 14 7 39 9 55 3 17 14 84 25 150 11 66
23 143 26 170 4 28 9 58 11 68 3 10 7 30 9 45 2 15 6 41 9 57 13 77 64 389 72
445 3 19 9 58 14 85 5 28 11 66 14 85 5 38 33 209 41 250 2 14 14 86 26 160
11 74 22 142 24 150 18 96 17 99 -9 131 -15 17 -25 39 -22 48 2 9 8 36 11 61
4 25 9 52 10 61 2 9 6 34 10 55 3 22 8 52 11 67 2 15 -1 37 -6 48 -8 15 -8 40
-1 90 l11 70 -177 224 -178 224 -922 1 -921 0 -6 -27z m1610 -1047 c-3 -23 -8
-50 -10 -61 -2 -11 -9 -55 -16 -98 -6 -43 -13 -88 -15 -100 -3 -12 -11 -67
-20 -122 -23 -145 -22 -141 -40 -245 -9 -52 -18 -106 -20 -120 -2 -14 -11 -70
-20 -125 -9 -55 -18 -111 -20 -125 -9 -56 -16 -96 -20 -110 -2 -8 -7 -39 -10
-69 -4 -30 -8 -62 -10 -71 -4 -21 -42 -250 -51 -305 -3 -22 -8 -43 -10 -46 -2
-4 -273 -6 -603 -7 -446 0 -599 3 -596 12 2 6 6 31 9 56 3 25 8 59 11 75 12
69 17 102 22 130 2 17 9 56 14 88 6 32 12 74 15 95 2 20 11 78 20 127 8 50 17
101 19 115 2 14 11 66 19 115 8 50 17 108 21 130 5 36 19 118 29 170 2 11 7
40 10 65 3 25 8 54 10 65 2 11 7 40 10 65 6 43 10 67 21 120 3 14 7 43 10 65
3 22 10 64 15 94 6 30 10 55 10 56 0 1 270 2 601 2 l600 0 -5 -41z"/>
<path d="M1541 9578 c-12 -4 -23 -29 -34 -80 -24 -102 -25 -107 -32 -128 -3
-10 -8 -27 -10 -37 -2 -10 -44 -182 -94 -381 -88 -350 -90 -365 -75 -391 15
-26 15 -32 0 -85 -17 -57 -17 -58 6 -92 13 -19 29 -34 37 -34 9 0 11 -7 7 -22
-3 -13 -6 -31 -6 -40 0 -33 -26 -46 -89 -43 -59 2 -61 1 -71 -29 -8 -25 -52
-206 -65 -266 -2 -8 -23 -98 -48 -200 -25 -102 -59 -241 -76 -310 -16 -69 -58
-237 -91 -375 -34 -137 -63 -257 -65 -265 -2 -8 -9 -37 -15 -65 -6 -27 -13
-57 -15 -65 -2 -8 -28 -116 -59 -240 -63 -256 -126 -518 -131 -540 -2 -8 -15
-62 -29 -120 -50 -206 -49 -196 -32 -222 13 -21 13 -29 0 -85 -16 -60 -16 -62
7 -92 12 -17 29 -31 37 -31 8 0 12 -6 9 -12 -2 -7 -19 -74 -37 -150 l-32 -136
23 -31 c21 -29 27 -31 83 -32 265 -2 1148 0 1152 3 3 3 157 612 168 663 1 6 5
19 9 30 3 11 8 31 11 45 2 14 73 297 156 630 83 333 153 612 155 620 2 8 15
62 30 120 15 58 29 115 31 127 2 12 9 35 15 50 l10 27 91 -95 c49 -52 173
-179 274 -282 101 -104 184 -195 184 -202 0 -8 -33 -148 -74 -312 -41 -164
-77 -309 -80 -323 -3 -14 -31 -131 -64 -260 -50 -199 -57 -237 -45 -251 16
-20 16 -41 -1 -105 -13 -50 -13 -53 11 -83 13 -17 30 -31 37 -31 12 0 -12
-120 -53 -266 -7 -26 -4 -37 16 -63 l24 -31 664 0 664 0 12 58 c15 71 15 67
28 122 7 25 14 56 17 70 5 23 84 358 139 585 13 55 29 123 35 150 7 28 13 57
15 65 34 141 247 1039 250 1050 15 71 67 286 70 290 2 3 6 21 9 40 3 19 16 79
29 132 l24 97 -21 31 c-12 16 -27 30 -33 30 -17 0 -18 -4 18 148 l31 132 32 0
32 0 37 143 c20 78 52 201 71 272 20 72 62 231 95 355 59 219 60 226 43 249
-14 19 -48 46 -59 46 -1 0 16 65 37 145 36 135 38 147 23 169 -15 23 -15 29 6
114 8 35 6 42 -17 69 l-27 29 -595 0 c-327 0 -621 0 -653 -1 -41 0 -57 -4 -56
-12 1 -7 -1 -24 -4 -38 -4 -14 -41 -176 -83 -360 -42 -184 -76 -336 -77 -337
-4 -4 -35 26 -86 82 -30 33 -86 94 -125 135 -39 42 -125 134 -191 205 -66 71
-147 158 -180 193 -33 35 -74 80 -91 99 l-31 34 -597 2 c-328 1 -605 -1 -615
-5z m1928 -1235 c0 -5 -4 -16 -8 -26 -6 -16 -9 -16 -31 8 l-23 25 31 0 c18 0
32 -3 31 -7z"/>
<path d="M5918 9580 c-54 -5 -59 -7 -77 -40 -10 -19 -28 -51 -40 -70 -11 -19
-24 -42 -28 -50 -4 -8 -47 -85 -96 -170 -49 -85 -105 -183 -124 -218 -44 -81
-170 -302 -183 -322 -5 -8 -22 -40 -39 -71 l-30 -55 24 -43 25 -42 -25 -40
-25 -39 20 -40 c19 -38 23 -40 68 -41 26 -1 53 -1 61 1 9 1 3 -17 -17 -52 -17
-29 -53 -94 -81 -143 l-49 -89 19 -38 c21 -41 21 -41 87 -38 40 1 42 0 37 -22
-8 -38 -65 -277 -85 -363 -11 -44 -62 -262 -115 -485 -136 -577 -145 -612
-152 -640 -3 -14 -7 -32 -9 -40 -2 -8 -31 -130 -64 -270 -34 -140 -64 -264
-66 -275 -2 -11 -20 -85 -38 -165 -31 -128 -33 -148 -21 -166 14 -22 13 -47
-5 -113 -8 -28 -6 -41 11 -68 11 -18 27 -33 35 -33 17 0 17 -4 3 -54 -6 -21
-12 -46 -14 -55 -2 -9 -13 -54 -24 -101 l-20 -85 22 -32 c15 -22 30 -33 47
-33 152 -4 3013 -1 3016 3 5 5 29 100 40 156 3 14 7 28 9 31 2 4 7 22 10 41 3
19 11 52 16 74 6 22 12 47 14 55 3 13 45 190 105 445 12 50 24 101 26 113 3
13 11 49 19 80 21 78 19 88 -18 124 l-32 31 34 139 c31 128 33 142 19 166 -11
22 -12 35 -3 72 l12 45 74 3 74 3 48 207 c27 114 50 216 52 226 3 11 16 67 30
125 60 255 84 358 90 386 3 17 11 53 18 80 16 58 10 84 -27 112 l-25 20 29
128 c17 71 30 130 30 132 0 2 24 3 54 3 l55 0 11 58 c7 31 28 122 47 202 31
133 101 435 108 470 2 8 8 33 13 55 6 22 13 51 16 65 2 14 11 56 20 93 15 66
15 69 -4 89 -11 12 -20 25 -20 30 0 4 -7 8 -15 8 -18 0 -17 -3 -5 40 6 19 13
48 15 63 3 16 14 67 25 114 18 77 19 86 4 100 -10 11 -13 24 -9 42 4 14 9 37
11 51 3 14 7 31 10 39 2 8 -6 29 -18 47 -20 30 -28 34 -68 34 -354 4 -2900 4
-2942 0z"/>
<path d="M9820 9582 l-35 -3 -98 -392 c-54 -216 -100 -396 -101 -402 -1 -5
-13 -53 -25 -106 -22 -88 -22 -99 -8 -119 11 -16 13 -29 6 -53 -21 -72 -21
-95 2 -127 13 -16 29 -30 36 -30 14 0 11 -30 -9 -82 -9 -25 -14 -27 -53 -23
-49 4 -72 -9 -79 -45 -9 -47 -107 -450 -132 -545 -8 -33 -20 -76 -25 -95 -12
-47 -69 -280 -73 -305 -3 -11 -12 -48 -21 -82 -9 -35 -18 -71 -20 -80 -2 -10
-29 -119 -60 -243 -31 -124 -58 -236 -61 -250 -3 -14 -30 -124 -60 -245 -31
-121 -57 -227 -59 -235 -2 -8 -21 -87 -44 -175 -22 -88 -42 -171 -45 -185 -3
-14 -14 -61 -25 -105 -19 -72 -19 -82 -5 -103 14 -21 14 -30 0 -84 -17 -66
-13 -84 28 -115 28 -22 27 -34 -18 -207 l-26 -99 22 -34 23 -34 623 6 623 5
57 47 c31 27 64 55 72 63 8 8 47 41 85 72 39 31 82 67 96 80 14 13 49 43 79
68 30 25 57 47 60 50 3 3 61 53 130 110 69 58 127 108 130 111 3 3 36 31 74
63 l69 58 356 -362 356 -361 450 -4 c248 -2 526 -4 619 -5 92 -1 172 2 176 7
7 8 28 85 46 172 3 14 7 28 9 31 2 4 7 20 9 37 3 16 22 93 41 169 20 76 37
148 40 159 2 11 18 76 35 145 17 69 33 132 35 140 5 25 294 1198 396 1607 l50
203 -26 35 c-15 19 -31 32 -36 29 -12 -7 -11 18 1 52 6 15 13 41 16 59 2 18
13 61 22 96 l17 64 45 3 c25 2 48 6 52 10 5 5 78 322 104 447 2 11 28 132 59
270 30 137 55 254 55 260 0 6 -14 25 -30 44 l-31 33 25 111 c38 176 38 174 25
195 -10 17 -10 33 0 85 12 63 12 67 -10 96 l-23 31 -610 -2 -609 -3 -18 -65
c-9 -36 -31 -119 -48 -185 -17 -66 -49 -190 -72 -275 -22 -85 -42 -162 -44
-170 -3 -12 -20 -80 -61 -235 -11 -43 -11 -51 3 -76 13 -22 13 -32 0 -85 -15
-57 -15 -60 6 -91 12 -18 30 -33 39 -33 10 0 15 -6 13 -12 -2 -7 -9 -32 -15
-54 l-10 -41 -62 1 -61 1 -29 -105 c-15 -58 -30 -114 -32 -125 -3 -11 -12 -47
-21 -80 -22 -79 -110 -408 -136 -510 -11 -44 -23 -82 -25 -84 -4 -4 -37 29
-103 105 -19 21 -69 77 -111 124 -42 47 -90 100 -106 119 -16 18 -40 46 -54
61 -85 93 -172 191 -206 232 -40 48 -49 54 -96 62 -25 4 -55 -15 -134 -89 -6
-5 -46 -41 -89 -80 -43 -38 -104 -93 -134 -121 -130 -119 -217 -194 -225 -194
-5 0 -3 7 4 15 7 8 10 15 7 15 -3 0 -1 13 4 30 9 25 7 34 -16 64 -17 23 -32
33 -42 29 -12 -5 -14 -1 -9 15 4 11 9 29 11 39 2 10 17 63 32 118 l28 100 42
3 c36 3 42 7 46 30 9 47 17 84 47 202 45 181 101 408 105 427 1 10 19 83 39
163 20 80 38 153 40 163 3 10 -10 32 -31 54 l-34 37 16 66 c9 36 18 72 20 80
2 8 10 42 18 76 12 52 12 63 0 80 -9 13 -12 30 -8 54 4 19 9 46 12 59 2 14 6
28 9 33 3 4 -8 22 -24 39 l-29 31 -609 1 c-335 1 -625 1 -644 -1z"/>
<path d="M15290 9549 c-96 -25 -256 -104 -341 -169 -126 -95 -267 -245 -366
-391 -29 -42 -116 -209 -133 -254 -4 -11 -14 -36 -22 -55 -29 -67 -31 -98 -9
-126 19 -24 19 -44 1 -69 -4 -5 -11 -24 -15 -42 -10 -49 26 -93 76 -93 l38 0
-27 -55 -27 -55 -56 0 c-46 0 -59 -4 -79 -25 l-23 -25 1 -332 c1 -523 3 -569
24 -680 20 -108 21 -111 32 -143 5 -11 14 -37 22 -58 32 -85 116 -189 194
-238 l45 -29 -343 1 c-189 0 -346 -2 -349 -5 -5 -4 -157 -605 -167 -661 -2
-11 -27 -112 -56 -225 -65 -258 -62 -238 -44 -265 13 -21 13 -30 -1 -84 -15
-60 -15 -62 6 -91 12 -16 29 -32 37 -35 10 -4 12 -13 7 -33 -4 -15 -8 -34 -10
-42 -2 -8 -13 -53 -25 -100 -31 -123 -31 -122 -5 -155 l25 -30 842 -2 c464 -1
1096 -2 1405 -3 l561 -1 99 37 c296 110 457 222 626 434 193 241 320 544 354
839 17 152 8 1009 -12 1081 -2 8 -6 31 -9 50 -23 159 -63 265 -131 351 -33 41
-62 76 -65 79 -3 3 -29 35 -59 73 l-53 67 271 0 271 0 5 23 c3 12 16 69 29
127 14 58 48 200 76 315 28 116 53 217 55 226 7 34 66 275 70 286 2 7 -12 29
-31 50 -34 36 -35 38 -24 82 6 26 12 55 14 66 2 11 13 55 24 98 17 66 18 79 6
92 -17 17 -18 37 -1 102 13 49 13 53 -10 82 l-25 31 -1311 -1 c-1270 0 -1314
-1 -1387 -20z"/>
</g>
</svg>
